<?xml version="1.0" encoding="UTF-8"?>
<svg id="_レイヤー_2" data-name="レイヤー 2" xmlns="http://www.w3.org/2000/svg" viewBox="0 0 374.24 72.76">
  <defs>
    <style>
      .cls-1 {
        fill: #231815;
      }
    </style>
  </defs>
  <g id="_レイヤー_1-2" data-name="レイヤー 1">
    <g>
      <path class="cls-1" d="M.41,19.83c2.37-2.81,3.51-6.12,5.65-8.78.15-.14.31-.29.46-.29,1.37-.22,2.6-.43,3.82-.5.15-.07.38,0,.53,0,.38.07.69.36.99.5.46.36.84.72.92,1.3.08.14.08.36.23.43.08.07.15.14.38.14.46.14,1.37.29,1.83.36h.76c3.51-.72,7.1-.94,10.76-.94.31,0,.46-.22.46-.43-.38-3.1-1.07-5.83-1.91-8.42-.15-.5-.08-.65.38-.94.31-.22.69-.58,1.07-.86.23-.29.53-.5.92-.79q.15-.22.53-.29h.23c.69-.07,1.53-.14,2.14-.22.38,0,.61-.22.76,0,.61.29,3.13,1.94,3.82,2.3.08,0,.15.07.31.14,1.14,2.59-.31,5.04-1.98,7.27-.15.14-.31.43-.61.5-.23.22-1.22.36-.38.58,6.49,1.58,13.36.86,19.92,1.58.15,0,.23,0,.38-.22.08-2.81,6.26-.79,7.86.72.08.07.08.22.15.36,0,.29.08.72.08,1.01.15.43-.08.5-.15,1.08-.46.94-1.22,2.74-1.45,3.31-.08.22-.15.36-.38.5-1.53,1.8-3.13,2.23-5.27,3.17-.31.07-.46.07-.76.07-.53-.22-1.3-.43-1.91-.58-.15-.07-.38-.07-.46-.14-.38-.07-.46-.07-.61-.36,0-.14-.08-.43-.08-.65-.08-.07-.08-.14,0-.14l2.67-5.62c.08-.22-.31-.22-.46-.22-12.9-1.15-28.32-.58-40.22,3.53-.38.07-.76.36-.99.58-1.3,1.87-2.06,4.46-3.59,5.98-.84.94-1.83,1.51-3.28,1.66-.38,0-.76,0-1.07-.14-.23-.07-.31-.22-.46-.43C.94,24.43-.2,22.27.03,20.26h.08c0-.14.15-.29.31-.43ZM19.95,59.5c0-.14-.15-.29-.15-.36.08-.14.38,0,.53.07,3.05.94,5.34,3.38,7.1,5.9.15.07.23.22.38.22,3.28-4.82,5.27-10.37,4.73-16.42,0-.65-.53-.86-1.22-.65-8.09,5.69-15.57,12.46-24.96,15.84-.99.36-1.15-.43-2.21-.36-.38-.07-.08-.29.23-.36,9.85-6.26,19.77-13.25,27.25-22.11.46-.5,0-1.37-.69-1.44-.23-.14-.53,0-.76.22-5.65,4.54-11.83,11.02-19.54,11.74-.76.07-1.53-.36-2.21-.65-.15-.07-.46-.29,0-.43,7.17-3.24,13.2-8.64,19.39-13.75.23-.22.38-.29.53-.58.46-.58,1.22-1.66,1.53-2.16.08-.22-.53-.29-.76-.22-3.66,3.31-8.85,4.03-13.59,5.26-.84.29-.84-.43-1.15-1.08-.08-.36-.23-.65-.46-.86-.08-.29-.31-.43-.23-.72,0-.36.15-.72.15-1.01.08-.36.08-.58.38-.79.53-.43,1.68-1.22,2.37-1.73.15-.14.38-.22.53-.29,3.74-.86,6.72-2.81,9.39-5.54.23-.07.38-.29.38-.36.08-.14-.31-.14-.46-.14-1.07-.14-2.14-.22-3.13-.43-.46-.07-.84-.07-1.22-.14-.31,0-.38-.14-.69,0-1.45.79-3.05,1.44-4.58,2.16-.38.14-.69.22-1.07.07-.38-.29-1.15-.72-1.6-.94-.53-.29-.99-.79-1.53-1.22-.31-.29-.31-.5-.31-.79s0-.58.08-.79c.08-.36.38-.72.69-1.08.15-.14.46-.22.76-.22,8.62-.86,17.71-.58,25.8-1.08,1.76-.07,3.36,0,4.96.22,1.45.14,2.75.43,3.97.79.23,0,.31.07.38.14.08.14-.31.22-.38.22-4.81,2.23-10.23,1.37-15.34,1.94-.15,0-.08.29,0,.58.08.5.38,1.44.61,1.94,0,.22.08.36,0,.43,0,.22-.31.36-.38.58-.92.86-1.53,1.87-1.83,3.1-.08.29.08.43.31.72.08.29.23.5.46.86.46.86,1.22,2.09,1.68,2.95.23.14.31.29.38.43.08.22.08.29.31.36.38.14.84.22,1.22.14,1.07-.65,2.21-1.44,2.98-2.02,4.88-3.24,2.52-3.96,6.33-7.85.23-.36.61-.14.92,0,1.37.79,2.82,1.66,4.27,2.16.46.14.61.65.53,1.01-.08,3.17-2.06,3.38-3.59,5.9-.15.22-1.3.94-1.68,1.15-1.53.86-2.6,1.8-3.82,3.02-.15.14-.46.36-.84.43-.31.22-.69.29-.92.43-.23.36-.15.94.15,1.15,8.24,8.35,18.01,13.9,27.93,19.15.23.07.61.22.46.36-.15.14-.38.36-.53.43-12.29,1.22-23.2-9-31.37-17.43-.08-.14-.23-.22-.38-.14-.15.07-.31.43-.46.79-.31.36-.38.72-.31,1.22.61,8.14.38,16.92-4.73,23.98-.38.36-1.07.5-1.68.14-1.14-.86-2.29-1.94-3.13-3.24-.92-3.02-4.05-6.19-6.18-8.86Z"/>
      <path class="cls-1" d="M99.25,14.57c0-.14-.08-.43-.23-.58-.15-.07-.38-.07-.61-.07-5.72-.22-11.37.79-17.25,1.3-.15.07-.23.22-.23.36-.61,3.82-3.21,6.84-6.95,8.64-.38.14-.69.14-.99,0-1.3-.72-2.37-1.51-2.82-2.88-.23-.58-.31-1.15.23-1.66,1.98-2.23,4.12-4.39,4.66-7.27.08-.29.08-.58.31-.72.15-.36.61-.72.92-1.01.15-.14.31-.29.76-.29h1.6c.38,0,.53.14.76.29.76.58,2.44.79,4.58.86,5.19.29,12.44-.29,15.04-.29.23,0,.15-.65.23-.94v-.79c.08-.36,0-.65-.15-.94-.38-.86-.76-1.73-.99-2.59,0-.36-.08-.65-.53-.65-1.07-.14-2.98-.36-4.35-.36-.61-.07-.92,0-1.37.36-1.15.72-2.44,1.15-3.82,1.08-1.22-.07-2.44-.58-3.28-1.44-.38-.36-.31-.72-.15-1.15.15-.43.38-.79.46-1.15.31-.65.46-.86,1.14-.86,9.69-.14,19.46-.22,29.16-.43.99,0,1.91.07,2.82.22,1.37.29,2.67.72,3.97,1.37.38.22,0,.36-.23.43-5.19,1.58-10.99,1.22-16.41,1.15-.23,0-.38.07-.61.14-.46.22-.61.65-.61,1.08,0,1.44-.23,2.88-.46,4.39-.15.36-.15.72.31.72,7.86.79,15.88.58,23.66.07.31,0,.53,0,.84.14,1.22.65,3.51,1.66,4.58,2.23.08.07.15.29.15.36.08.29.31.65.38.86.08.36.08.72-.15,1.08-1.22,2.45-3.51,4.1-6.26,4.61-.31.14-.53,0-.84-.07-.46-.14-1.3-.43-1.76-.58-.23-.14-.38-.22-.38-.36-.15-.58,0-1.15.23-1.51.69-1.01,1.14-1.94,1.45-3.17,0-.22.08-.5-.08-.65-.23-.22-.61-.36-.84-.5-.31,0-.53.14-.76.14-3.36.94-7.63.07-11.14,0-2.37,0-7.79.14-9.16.14-.15,0-.23.22-.23.36-1.07,2.38-.38,5.4-.38,7.92-.38,3.17-.61,7.2-2.21,10.3-.08.29-.31.65-.38.65-.08.07-.15-.29-.15-.36-.69-2.74-.99-5.76-1.07-8.78,0-3.17-.15-6.19-.38-9.22ZM99.25,54.32c-.15-.14-.38-.22-.61-.22-2.75-.36-5.65,0-8.32.58-.31.22-.38.58-.69.72-.38.29-.92.07-1.07-.29-2.75-3.6-2.21-8.57-3.74-12.67-.08-.29-.23-.43-.46-.65-.08-.07-.15-.22-.31-.22-.53-.36-.99-.86-1.3-1.3-.23-.36-.46-.86-.46-1.51,0-.36.08-.79.38-1.08.31-.29.92-1.01,1.22-1.37.15-.29.38-.36.76-.36,9.77-.36,22.06-1.94,31.75-.79.31,0,.53,0,.84-.22.08,0,.23-.07.38-.14.69-.43,1.53-.72,2.44-.79.23,0,.46,0,.69.07.61.29,1.45.86,1.98,1.15.15.14.23.29.23.5,0,.43.15,1.08.23,1.51,0,.36-.08.72-.31,1.08-2.21,4.54-3.36,9.58-6.11,13.97-.23.14-.38.36-.61.43-3.82,1.08-8.47,0-12.29,1.08-.31.07-.46.29-.61.65-.38,3.82-1.07,8.93,2.44,11.45,7.94,3.46,19.39,2.81,27.71.58.38-1.22-.23-6.62-.53-10.08-.15-1.3-.31-2.16-.31-2.66v-.14s.15.22.23.36c1.98,4.54,2.82,9.43,5.04,13.9.23.36-.08.65-.46.72-3.21,1.66-7.25,2.23-11.07,2.02-5.8,0-11.75.43-17.25-.72-8.32-.5-9.39-8.93-9.85-15.55ZM83.75,28.54c0-.22.23-.43.46-.72.38-.22.76-.58.99-.94.23-.22.31-.29.61-.29.46-.07,1.83-.29,2.52-.36.31,0,.38-.07.53,0,.61.43,2.52,1.94,3.05,2.45.08.07.15.14.15.29v.72c0,.22-.08.36-.15.65-.23.14-.38.5-.53.79-.31.43-.53.86-.76,1.15-.46.36-.99.65-1.53.58-.23,0-.38,0-.46-.14-1.07-.5-4.27-2.09-4.88-3.17-.15-.29-.15-.65,0-1.01ZM86.04,22.13c-.38-.5-1.22-1.51-1.6-1.94,0-.07,0-.14.15-.22.08-.22.15-.36.38-.72.23-.65.61-1.44.84-1.73.08-.14.15-.22.38-.36.84-.43.99-.14,1.76-.07.69-.07,1.68-.36,2.37-.5.46-.14.69.07.84.43.53.94,1.07,2.02,1.3,3.17.15.36,0,.72-.15,1.01-.38.43-.61.86-.76,1.3-.08.36-.46.36-.84.5-.53.07-1.45.22-1.98.29-.15.14-.38,0-.46-.07-.23-.07-.46-.36-.76-.5-.31-.22-.69-.22-1.07-.29-.15-.07-.23-.14-.38-.29ZM98.64,37.54c-3.21-.65-6.72.36-9.85,1.01-.23.07-.53.14-.53.43-.08.86.46,2.66.76,3.74.08.36.08.5.46.58,1.98.36,8.01-.22,10.15-.43.08,0,.23,0,.31-.07.15-.29.15-.58.15-.79,0-.29-.15-.58-.38-.79-.15-.58-.23-1.01-.38-1.51-.08-.5-.15-.94-.15-1.44,0-.22,0-.36-.08-.43v-.14c-.08-.07-.31-.14-.46-.14ZM90.01,46.25c0,.36-.15.79-.15,1.08-.08.29,0,.36,0,.58.08.65.31,2.02.46,2.59,0,.29,0,.36.08.43,2.29.58,6.79-.07,9.08-.36.23,0,.53,0,.46-.22.08-1.15.15-3.67.15-4.46v-.14c-.08-.14-.38-.22-.53-.22-2.9-.65-6.11-.72-9.24.29-.15.07-.15.29-.31.43ZM104.67,45.1c-.31.07-.61.07-.76.14-.23.14-.23.36-.23.58-.23,1.44-.38,2.95-.23,4.46q0,.14.15.14c1.14,0,7.33.07,9.92.07.08,0,.23.07.23-.07.69-1.51,1.15-3.17,1.45-4.82.31-1.3,1.15-4.54,1.3-5.33-.08-.14-.15-.43-.15-.58-.31-.94-.15-1.66,0-2.52-.15-.29-.23-.36-.46-.43-3.36-.65-7.94,0-11.22.43-.38.07-.53.29-.61.5-.08.72-.38,1.87-.15,2.52,0,.29.08.36.08.65-.08.22-.15.72-.31.94-.08.36-.08.58.15.79.23.36.53.58.99.5,3.05-.14,5.88.07,8.7.86.08,0,.15,0,.23.07h.23c-1.3.29-3.82.65-4.81.79-.31.07-1.53.22-1.83.07l-1.07-.07c-.61.07-1.15.22-1.6.29ZM109.25,27.6c.08-.14.08-.29.31-.36.53-.29,1.76-1.01,2.37-1.37,3.59-.58,7.48,2.45,4.88,5.47-.31.22-.61.43-.92.43-2.37.5-3.89-.07-5.72-1.58-.61-.72-.92-1.66-.92-2.59ZM110.01,21.27c-.15-.43-.53-1.51-.69-1.87,0-.14-.08-.29,0-.36.23-.58.69-1.51.99-2.02.15-.22.23-.29.46-.36.31-.07.53-.29.76-.29.38,0,.61.07.84,0,.15,0,.31-.07.46-.14.31-.14.53-.36.84-.43.31-.22.61-.29.84-.22,2.29.5,4.73,3.82,4.2,5.98-.15.5-.76.43-1.37.43-.53,0-1.15.07-1.68.14-.69.22-1.22.29-1.76.58-.23,0-.38.07-.61,0-.15,0-.23-.07-.38-.22-.61-.36-1.37-.58-2.21-.79-.15,0-.31-.07-.53-.07-.08-.07-.15-.14-.15-.36Z"/>
      <path class="cls-1" d="M164.65,43.8c0-.14-.29-.22-.5-.29-.36-.22-.72.07-.94.29-4.39,5.18-9.86,8.86-16.13,9.72-.14,0-.22-.07-.22-.29-.14-.72-.58-2.38-.79-3.1-.07,0-.07-.07-.07-.14.07-.14.14-.22.29-.29.36-.5,1.22-1.51,1.66-1.94.22-.29.36-.36.72-.43,6.98-2.23,14.04-8.93,15.27-16.71,0-.29.22-.94-.14-.94-1.58.07-10.58,1.01-12.31,1.37-.43.5-1.22,1.37-1.66,1.87-.14.07-.29.07-.5.07h-1.08c-.58,0-1.01-.07-1.37-.58-1.15-1.01-1.66-2.45-.94-3.89.72-2.02,15.41-1.8,18.22-2.23.43,0,.58-.36.58-.72.36-2.74,1.01-6.34-.65-8.71-.29-.22-.65-.36-1.01-.36-1.73.29-3.38.94-5.33.72-.43,0-.79-.22-1.01-.72-.5-.94-.86-1.94-.94-3.1-.14-.22,0-.58.22-.79,4.39-1.94,9-2.66,11.88-6.98.07-.22.14-.36.36-.5.14-.07.22-.07.43-.14.43-.07,1.15-.36,1.51-.43.43-.07.5-.07.94.14.43.29.94.58,1.37.79.29.14.43.29.58.36.29.22.36.22.5.58.07.22.07.58.14.86.22.43.43,1.01.07,1.44-1.58,1.94-3.38,3.82-5.11,5.4-.22.07-.36.36-.43.58-.14.14,0,.43,0,.58.29,3.38.58,6.84.79,10.44.07.36.14.5.5.58,2.38.14,4.68.36,7.06,1.08.36.22.43.79.5,1.22,0,.14,0,.22-.14.22-.86.07-4.9.5-5.83.72-.43,0-.94-.29-1.37-.36-.36-.07-.5.22-.65.5-.79,2.45-1.22,4.9-1.37,7.49.14.29-.07.65.22.79.86.72,5.04,3.82,6.84,5.18.07.07.14.07.14.22.14.22.14.29,0,.43.14.29-.07.58-.22.72l-1.01,1.01c-.14.14-.43.36-.79.36-.29,0-.43,0-.72-.22-.72-.43-3.1-1.87-3.89-2.3-.22-.07-.22.14-.29.43-1.3,8.42-.07,17.79-2.3,25.99-.07.14-.22.14-.29,0-1.3-3.38-1.73-7.2-1.37-11.23.07-3.02.5-12.75.58-14.76ZM182.07,36.46c0-.29-.14-.43-.36-.65-.36-.36-.86-.72-1.22-1.01-.22-.29-.36-.5-.65-.65-.14-.22-.22-.29-.36-.5,0-.36,0-.86.14-1.22.36-.58,1.3-1.73,1.73-2.3.07-.07.22-.07.29-.07.5.07,2.52.65,3.17.79.29.07.58,0,.94-.07,7.99-1.8,16.85-1.8,25.13-.5.22,0,.36-.22.43-.36.22-.29.36-.65.43-.79.14-.29.29-.36.58-.5.29,0,.65-.07.79-.14h.43c.65.5,2.66,2.16,3.38,2.81.07.22,0,.5,0,.72-.5,6.05-4.18,11.67-6.41,17.57,0,.14.07.29.22.43.22.36.58.72.79.94.07.07.14.29,0,.36-5.33,1.8-20.38-1.3-25.06,2.45-.29.14-.5,0-.58-.22-1.08-2.74-1.87-5.47-2.3-8.35-.36-2.95-.79-5.83-1.51-8.71ZM186.97,34.3c-.29,0-.43.14-.5.29-.22.36-.29.79-.36,1.22,0,.22,0,.5.07.65,1.01,4.03,1.51,8.06,1.8,12.17,0,.29,0,.36.07.36h3.02c5.33-.07,15.48.22,16.27-.07.72-4.82,2.66-9.36,3.6-14.11.14-.22.14-.5,0-.58-7.63-2.3-16.42-1.58-23.98.07Z"/>
      <path class="cls-1" d="M242.41,58.28c-.29-.29,1.08-.14,1.3-.14.36-.07.65.14.79.36,2.23,2.16,4.82,5.47,7.49,6.62.29-9.79,1.37-19.73,0-29.59-.07-.36-.29-.65-.72-.65-7.7-.36-16.99,1.22-23.4,4.68-1.22.22-2.38-.58-3.24-1.3-.58-.43-.58-1.44-.79-2.02-.14-.36-.22-.5,0-.72.22-.5.72-1.3.94-1.73.14-.14.29-.29.43-.29.65-.22,2.02-.86,2.67-.94.5,0,1.08.36,1.66.29,7.78-1.15,15.62-1.8,23.47-1.73.43,0,.79-.14.72-.58-.22-7.2.43-14.69.58-22.11-6.48-.58-12.67,1.87-18.22,4.97-1.66.86-3.17-3.67-2.81-4.82.14-.72,1.15-1.8,2.02-1.8,4.54-.07,26.43-3.89,27.58,1.3-.14.29-.5.29-.65.36-.72.22-1.01.22-1.66.14-.22-.14-.58-.14-.65.07-1.08,7.49-1.44,15.19-3.82,21.89-.22.43.07.65.5.65.65.22,6.41.65,4.97,1.37-1.94,1.58-3.96.94-3.96,2.02-1.22,10.44-2.45,21.24-1.94,31.97-.29.79-.58,3.31-1.01,3.53-.5.29-1.44.79-1.94,1.08-.36.07-.79-.43-1.08-.58-.79-.94-8.06-10.94-9.22-12.31ZM231.75,44.45c-.14-.14,0-.43.07-.58.14-.43.36-.94.5-1.15,0-.14.07-.22.22-.22.43,0,1.87-.29,2.38-.29.29-.07.5,0,.72.22,3.89,1.87,10.51-3.02,14.33,0,.14.14.36.36.22.65-.58,2.74-1.37,5.4-2.23,8.14-.22.58.36.65.72.79,0,0,.14,0,.14.14q0,.07-.14.14c-.07.29-.43.72-.58,1.08-.22.29-.36.36-.72.43-4.03,1.08-9.79-.79-11.95,3.67-.22.22-.43.07-.5-.14-1.22-1.87-2.02-3.89-2.16-6.12-.14-2.3-.5-4.54-1.01-6.77ZM232.18,16.8c4.54-1.51,9.5-.65,14.18-.5.29,0,.43,0,.58-.29.43-.72.36-.79,1.3-.94,6.12-1.3,2.88,5.54,1.22,9.65-.07.29-.22.58-.58.65-.43.29-1.01.43-1.51.5-.36.14-.72.22-1.08.22-4.03-.29-7.13,1.51-10.58,2.59-.36.07-.65-.14-.79-.36-2.23-3.24-3.1-6.7-3.17-10.66,0-.22,0-.36.07-.58.07-.14.29-.14.36-.29ZM243.27,44.81c-.36-.07-.65-.07-.86,0-1.8.65-4.03.94-6.12,1.15v.22c.07.79.29,4.46.43,5.98q0,.07.07.07c.07,0,.43,0,1.01-.07.86,0,2.09-.14,3.17-.22,1.01,0,1.94-.07,3.02-.14.14,0,.14.07.14-.22.14-.5.14-1.08.22-1.58,0-1.15.14-2.59.29-3.74v-1.15c-.36-.07-.94-.14-1.37-.29ZM244.42,18.53c-2.23-.07-5.11.07-6.19.07-.29.07-.22.29-.29.43,0,1.3.14,3.24.29,4.46,0,.07,0,.29.07.36.29.07.5.07.79.14.29.14.5,0,.79,0,1.73-.36,3.89-.36,5.9-.36.14,0,.22,0,.36-.07.07-.72.22-2.81.43-3.82,0-.36.07-.65.07-.72v-.14c-.36-.29-1.15-.29-2.23-.36ZM268.33,56.98c-.07.29-.36.5-.58.58-3.31,2.02-5.47,5.11-9.36,5.26-.29,0-.43,0-.65-.22-.14-.14-.14-.58-.07-.79,10.73-7.99,19.3-19.01,18.58-32.76-.07-.22-.14-.29-.29-.5-.5-.86-.65-1.87-.65-2.74.14-1.3.94-2.74,1.8-4.18.14-.07.22-.29.22-.43h-.22c-.22,0-.65.07-1.22.29-1.8.5-4.68,1.87-5.76,2.3-.22.07-.29.14-.43.36-1.01,1.66-3.02,3.6-4.39,4.75-.22.29-.5.43-.86.43-.29.14-.65.14-.86.22-.29,0-.58,0-.72-.29-.65-.86-1.01-1.73-1.01-2.74,0-.36.07-.72.29-1.01,2.45-4.03,4.68-8.42,6.41-13.03.07-.29.14-.43.07-.72-.72-3.31,1.8-6.84,5.26-7.13.43,0,.86.07,1.15.36,1.3,1.08,1.94,2.3,1.66,4.03-.36,3.02-1.15,5.9-2.59,8.71-.07.36.22.43.5.43,6.26,1.08,13.32-1.44,19.44.5.36.14.5.22.65.58.14.43.72,1.66.86,2.23.14.22,0,.5-.29.79-.36.36-.72.79-1.08,1.15-1.3,1.3-2.74,2.45-3.82,3.6-1.37,1.73-3.17,3.02-5.33,3.96-.14.14-.43.22-.72.36-.14,0-.29.07-.5,0-.14-.14-.36-.36-.43-.58-.07-.14-.22-.22-.22-.43,0-.14.22-.36.29-.5,2.02-2.81,4.54-5.18,5.54-8.35.07-.14.07-.36.07-.5s-.07-.22-.29-.22c-3.17-.94-6.55-.22-9.79.14-.58,0-.5.07,0,.29,2.09.86,3.24,2.81,2.52,5.04-1.22,4.75-1.58,9.5-2.66,14.19-.07.29,0,.65.14.94,4.9,10.66,14.33,19.8,24.48,25.99.14.07.29.14.29.22-5.98,2.45-11.31-3.02-15.77-6.98-4.61-4.25-7.85-9.5-10.51-14.62-.07-.14-.14-.22-.22-.14-.14,0-.29.14-.36.29-1.58,2.52-3.38,5.04-5.47,7.56l-1.3,1.44c-.07.14-1.73,1.8-1.8,1.87Z"/>
      <path class="cls-1" d="M336.73,52.08c-8.86,6.84-17.57,13.97-27.87,14.62,8.42-5.47,17.14-10.95,24.77-17.57.36-.22.29-.36-.14-.43-6.77-.58-14.62-.94-20.74,1.87-1.87.43-2.95-1.66-3.46-3.31-.22-.5.07-1.01.5-1.37,1.15-1.15,1.73-1.37,3.31-1.8.36-.07.72-.29,1.08-.14.58.22,1.22.79,1.73,1.01,5.47.36,15.91-.14,21.53-.14.58,0,.43-.72.58-1.15.07-.29.07-.43,0-.72-.22-.72-1.01-3.17-1.3-4.03-.22-.86-3.6-.65-4.54-.65-2.16.14-4.32.79-6.19,1.58-.36.14-.72.14-.86-.22-.86-1.15-1.15-2.45-1.3-3.89-.14-4.68-.14-14.76-.14-19.66-.07-.29-.36,0-.58.07-1.94,1.66-4.03,2.59-6.19,2.81-.65.14-1.15-.29-1.58-.65-.22-.14-.36-.43-.29-.72-.07-.43-.14-1.3-.14-1.94,0-.36-.14-.72.07-1.01.07-.22.36-.65.65-.94,4.39-2.74,8.5-6.41,9.22-11.81.14-1.01,1.22-1.51,2.16-1.66,1.15-.07,3.46.36,3.53,1.87.36,3.02-1.51,5.98-3.02,8.5,1.15,0,9.07-.65,10.22-.72.14,0,.14-.22.29-.36.22-.43.94-1.87,1.22-2.59.07-.07.14-.14.07-.36-.14-.36-.5-.43-.79-.79-.72-.72-.86-1.8-.36-2.59.43-.65.72-1.44,1.08-1.94,1.51-1.15,3.38-.79,4.97-.07,1.58.58,1.94,3.6,1.15,4.97-.14.36-.43.86-.65,1.3-.22,1.01-1.73,1.08-.65,1.8.22.36.65.43,1.15.29,2.88-.43,6.19-.07,8.86.94.65.5.29,1.15-.36,1.3-3.02.86-6.41-.22-9.29.94-.72.65-.86,1.87-1.01,2.88-.07.58-.65,2.02.29,2.3,2.74.43,5.47.79,8.14,1.3.72.14.94.79.22,1.01-2.66.65-5.54,1.08-8.28,1.51-.29,0-.36.14-.36.36-.07.65-.07,2.23-.22,3.17,0,.43-.14,1.08.5,1.01,2.88.07,5.76.43,8.57.94.58,0,1.01.86.5,1.08-2.95.72-5.9,1.15-8.86,1.51-.5,0-.79.43-.79,1.01,0,1.3-.14,2.45-.5,3.6-.07.29-.22.58-.07.72,1.87.22,7.56.5,9.14.14.22-.14.36,0,.58.07.58.29,1.8.79,2.3.94s.5.86.14,1.08c-2.81.43-6.84.58-9.79.72-.43.07-1.01,0-1.44-.07-.72-.07-1.3.29-1.22.94.07,1.3-.58,2.23-.36,3.53.14.5-.29,1.22.07,1.73,7.13,1.44,15.48-.58,22.54,1.73.43.14.14.36-.22.43-1.66.79-3.53,1.51-5.47,1.3-4.39-.07-8.86.5-13.25-.07-.5,0-.22.29.07.43,9.07,7.2,18.36,13.83,28.59,18.72-.43.22-1.01.36-1.51.58-11.38-1.87-21.75-9.65-30.82-16.85-1.94,6.77.86,16.27-3.1,22.32-.14.07-.29-.22-.36-.36-1.08-2.16-1.44-4.82-1.15-7.42v-.07c.07-.43.94-14.83-.58-12.82ZM338.53,30.12c-.07-.14-.14-.14-.36-.22-3.53-.36-7.2.14-10.58.94-.29.07-.36.22-.36.36-.07.65-.36,2.95-.36,3.67-.07.36.22.36.43.43,3.38.58,7.42.36,10.87-.07.22,0,.36,0,.43-.14.22-.07.22-.22.22-.36.07-.36.07-.65.07-1.01,0-.86-.22-2.66-.36-3.6ZM338.39,21.7c-.22-.07-.5-.07-.72,0-3.17.65-7.34-.22-9.79,1.58-.29.22-.43.36-.43.79-.14.58-.22,1.73-.29,2.45,0,.22-.14.58,0,.65.29.22.5.22.79.29.22.07.36.07.43.07,1.51-.5,4.75-.14,6.34-.14,1.22-.22,2.66-.36,3.89-.43.22-.07.36,0,.36-.29v-.43c.07-1.01.22-2.23.29-3.24,0-.29.07-.58.07-.65,0-.14,0-.22-.07-.22l-.86-.43ZM337.88,13.42c-3.1-.72-6.62.07-9.5.86-.36.14-.5.22-.58.65-.14.43-.22,1.01-.29,1.44q-.07.36,0,.72c0,.43.07.94.07,1.37,0,.29.07.72.07,1.01v.07c.65.14,4.46-.36,7.56-.72,1.66-.07,2.59-.22,3.46-.36h.22c-.07-.94-.5-3.24-.5-4.03v-.14c.07-.43.22-.79-.5-.86Z"/>
    </g>
  </g>
</svg>